<svg width="35" height="35" viewBox="0 0 35 35" fill="none" xmlns="http://www.w3.org/2000/svg">
<path d="M29.6885 22.2232C29.1793 22.1722 28.6701 22.3169 28.2673 22.6227C27.9463 22.0842 27.399 21.7021 26.7658 21.6387C26.2562 21.5877 25.7474 21.7323 25.3446 22.0382C25.0236 21.4996 24.4763 21.1175 23.8431 21.0541C23.454 21.0152 23.0656 21.0902 22.7244 21.2639V18.5639C24.6107 16.5151 25.6471 13.863 25.6471 11.0699C25.6472 4.96597 20.6812 0 14.5772 0C8.47322 0 3.50732 4.96597 3.50732 11.0699C3.50732 17.1739 8.47322 22.1398 14.5772 22.1398C16.0123 22.1398 17.3971 21.8719 18.7057 21.3438V28.6064C18.7057 32.1318 21.5737 34.9999 25.0992 34.9999C28.6246 34.9999 31.4927 32.1318 31.4927 28.6064V24.3056C31.4927 23.2392 30.7003 22.3245 29.6885 22.2232ZM18.7057 14.8695V20.1516C17.4083 20.7435 16.0212 21.0438 14.5772 21.0438C9.07765 21.0438 4.60332 16.5696 4.60332 11.0699C4.60332 5.57033 9.07765 1.09601 14.5772 1.09601C20.0768 1.09601 24.5511 5.57033 24.5511 11.0699C24.5511 13.1544 23.9103 15.1518 22.7244 16.8252V14.9528C22.7244 13.8863 21.932 12.9716 20.9204 12.8703C20.3534 12.8137 19.7873 12.999 19.3672 13.3792C18.9468 13.7596 18.7057 14.3028 18.7057 14.8695ZM30.3967 28.6065C30.3967 31.5275 28.0202 33.904 25.0992 33.904C22.1781 33.904 19.8017 31.5275 19.8017 28.6065V14.8695C19.8017 14.612 19.9112 14.365 20.1025 14.192C20.2725 14.0382 20.4871 13.9562 20.7149 13.9562C20.7467 13.9562 20.7788 13.9578 20.8111 13.961C21.2694 14.0068 21.6284 14.4425 21.6284 14.9528V23.0532C21.6284 23.3558 21.8738 23.6012 22.1765 23.6012C22.4792 23.6012 22.7245 23.3559 22.7245 23.0532C22.7245 22.7956 22.8341 22.5486 23.0254 22.3756C23.2191 22.2004 23.4709 22.1183 23.734 22.1446C24.1922 22.1904 24.5513 22.6261 24.5513 23.1364V23.6376C24.5513 23.9403 24.7966 24.1857 25.0993 24.1857C25.4019 24.1857 25.6473 23.9403 25.6473 23.6376C25.6473 23.3801 25.7569 23.1331 25.9482 22.9601C26.1419 22.7849 26.3936 22.7028 26.6568 22.7291C27.1151 22.7749 27.4741 23.2106 27.4741 23.7208V24.2221C27.4741 24.5247 27.7195 24.7702 28.0222 24.7702C28.3248 24.7702 28.5702 24.5248 28.5702 24.2221C28.5702 23.9645 28.6798 23.7176 28.871 23.5445C29.0648 23.3693 29.3165 23.2872 29.5797 23.3136C30.0379 23.3594 30.397 23.7951 30.397 24.3054V28.6065H30.3967Z" fill="#565656"/>
<path d="M17.8432 6.05041C16.9741 5.18136 15.8376 4.69361 14.6432 4.67693C13.3882 4.65916 12.2105 5.13385 11.3194 6.01254C10.4282 6.89144 9.9374 8.06469 9.9374 9.31628C9.9374 9.61891 10.1827 9.86432 10.4854 9.86432C10.7881 9.86432 11.0335 9.61897 11.0335 9.31628C11.0335 8.36034 11.4083 7.46422 12.089 6.79293C12.7695 6.12178 13.6708 5.76009 14.6279 5.7728C16.4953 5.79885 18.0949 7.39832 18.1208 9.26563C18.1461 11.08 16.8098 12.6139 15.0126 12.8337C14.452 12.9023 14.0293 13.3833 14.0293 13.9526V14.5772C14.0293 14.8798 14.2746 15.1253 14.5773 15.1253C14.88 15.1253 15.1253 14.8799 15.1253 14.5772V13.9526C15.1253 13.9358 15.1361 13.9228 15.1458 13.9216C17.4997 13.6337 19.2499 11.6255 19.2167 9.25038C19.2 8.05594 18.7122 6.91946 17.8432 6.05041Z" fill="#565656"/>
<path d="M14.5772 16.0752C14.1139 16.0752 13.737 16.4521 13.737 16.9155C13.737 17.3788 14.1139 17.7557 14.5772 17.7557C15.0406 17.7557 15.4175 17.3788 15.4175 16.9155C15.4175 16.4521 15.0406 16.0752 14.5772 16.0752Z" fill="#565656"/>
</svg>
