<svg width="20" height="22" viewBox="0 0 20 22" fill="none" xmlns="http://www.w3.org/2000/svg">
<path d="M16.8554 17.6536C16.0504 17.3386 15.9454 17.0236 15.9454 16.6736C15.9579 16.4959 16.008 16.3228 16.0925 16.1659C16.177 16.009 16.2939 15.8719 16.4354 15.7636C16.6782 15.5432 16.8698 15.2724 16.9968 14.9701C17.1237 14.6677 17.183 14.3413 17.1704 14.0136C17.1704 12.6836 16.3654 11.5636 14.9654 11.5636C13.5654 11.5636 12.7604 12.6836 12.7604 14.0136C12.7559 14.3402 12.8189 14.6642 12.9453 14.9653C13.0718 15.2665 13.2591 15.5382 13.4954 15.7636C13.6369 15.8719 13.7538 16.009 13.8383 16.1659C13.9228 16.3228 13.9729 16.4959 13.9854 16.6736C13.9854 17.0236 13.8804 17.3386 13.0754 17.6886C11.9204 18.2136 10.8354 18.8436 10.8004 19.8936C10.8004 20.5936 11.3254 21.3286 11.9904 21.3286H18.0104C18.6754 21.3286 19.2004 20.5936 19.1304 19.8936C19.0954 18.8436 18.0104 18.1436 16.8554 17.6536Z" fill="#565656"/>
<path d="M9.40044 19.8936V19.8236C9.47044 17.9336 11.2204 16.9886 12.2704 16.4986C11.6699 15.8115 11.3457 14.9261 11.3604 14.0136C11.357 13.4633 11.4568 12.9172 11.6544 12.4036H8.73544C8.62462 12.4018 8.51883 12.357 8.44045 12.2786C8.36207 12.2002 8.31725 12.0945 8.31544 11.9836V11.1786C8.31725 11.0678 8.36207 10.962 8.44045 10.8836C8.51883 10.8053 8.62462 10.7604 8.73544 10.7586H12.9354C13.5142 10.3837 14.1862 10.1778 14.8757 10.1642C15.5652 10.1506 16.2448 10.3298 16.8379 10.6816V2.32364C16.8389 1.80655 16.6351 1.31012 16.2711 0.942849C15.9071 0.575578 15.4125 0.367335 14.8954 0.363635H2.50544C2.24792 0.363174 1.99285 0.413557 1.75484 0.511892C1.51683 0.610228 1.30058 0.754583 1.11849 0.936678C0.936392 1.11877 0.792036 1.33502 0.6937 1.57303C0.595364 1.81104 0.544983 2.06612 0.545444 2.32364V18.0036C0.544983 18.2612 0.595364 18.5162 0.6937 18.7542C0.792036 18.9922 0.936392 19.2085 1.11849 19.3906C1.30058 19.5727 1.51683 19.717 1.75484 19.8154C1.99285 19.9137 2.24792 19.9641 2.50544 19.9636H9.40044C9.40044 19.9391 9.40044 19.9181 9.40044 19.8936ZM8.31544 5.57864C8.31725 5.46781 8.36207 5.36202 8.44045 5.28364C8.51883 5.20527 8.62462 5.16044 8.73544 5.15864H14.0554C14.1663 5.16044 14.2721 5.20527 14.3504 5.28364C14.4288 5.36202 14.4736 5.46781 14.4754 5.57864V6.38364C14.4788 6.43673 14.4713 6.48994 14.4536 6.54009C14.4359 6.59024 14.4082 6.63629 14.3723 6.67551C14.3363 6.71472 14.2928 6.74627 14.2444 6.76829C14.196 6.7903 14.1436 6.80233 14.0904 6.80364H8.73544C8.62462 6.80183 8.51883 6.757 8.44045 6.67863C8.36207 6.60025 8.31725 6.49446 8.31544 6.38364V5.57864ZM6.88044 12.7536C6.93139 12.8117 6.95948 12.8864 6.95948 12.9636C6.95948 13.0409 6.93139 13.1155 6.88044 13.1736L6.46044 13.5936C6.40235 13.6446 6.32771 13.6727 6.25044 13.6727C6.17317 13.6727 6.09854 13.6446 6.04044 13.5936L4.85044 12.4036L3.69544 13.5586C3.63735 13.6096 3.56271 13.6377 3.48544 13.6377C3.40817 13.6377 3.33354 13.6096 3.27544 13.5586L2.85544 13.1386C2.8045 13.0805 2.77641 13.0059 2.77641 12.9286C2.77641 12.8514 2.8045 12.7767 2.85544 12.7186L4.01044 11.5636L2.85544 10.4086C2.8045 10.3505 2.77641 10.2759 2.77641 10.1986C2.77641 10.1214 2.8045 10.0467 2.85544 9.98864L3.27544 9.56864C3.33354 9.51769 3.40817 9.4896 3.48544 9.4896C3.56271 9.4896 3.63735 9.51769 3.69544 9.56864L4.85044 10.7236L6.04044 9.53364C6.09854 9.48269 6.17317 9.4546 6.25044 9.4546C6.32771 9.4546 6.40235 9.48269 6.46044 9.53364L6.88044 9.95364C6.93139 10.0117 6.95948 10.0864 6.95948 10.1636C6.95948 10.2409 6.93139 10.3155 6.88044 10.3736L5.69044 11.5636L6.88044 12.7536ZM7.86044 4.24864L4.71044 7.39864C4.65581 7.45456 4.59046 7.49889 4.51829 7.52896C4.44612 7.55903 4.36862 7.57422 4.29044 7.57364C4.21203 7.57592 4.13402 7.5615 4.06161 7.53133C3.9892 7.50116 3.92403 7.45593 3.87044 7.39864L2.36544 5.89364C2.33284 5.86918 2.30638 5.83748 2.28816 5.80103C2.26993 5.76458 2.26044 5.72439 2.26044 5.68364C2.26044 5.64288 2.26993 5.60269 2.28816 5.56624C2.30638 5.52979 2.33284 5.49809 2.36544 5.47364L2.78544 5.05364C2.80989 5.02103 2.8416 4.99457 2.87805 4.97635C2.9145 4.95812 2.95469 4.94864 2.99544 4.94864C3.0362 4.94864 3.07639 4.95812 3.11284 4.97635C3.14929 4.99457 3.18099 5.02103 3.20544 5.05364L4.29044 6.13864L6.98544 3.44364C7.00989 3.41103 7.0416 3.38457 7.07805 3.36635C7.1145 3.34812 7.15469 3.33864 7.19544 3.33864C7.2362 3.33864 7.27639 3.34812 7.31284 3.36635C7.34929 3.38457 7.38099 3.41103 7.40544 3.44364L7.82544 3.86364C7.93044 4.00364 7.93044 4.21364 7.86044 4.24864Z" fill="#565656"/>
</svg>
