<svg width="35" height="35" viewBox="0 0 35 35" fill="none" xmlns="http://www.w3.org/2000/svg">
<path d="M15.3657 2.86646C15.8537 2.37811 16.6452 2.37781 17.1335 2.86577L20.8894 6.61865C21.1241 6.85321 21.2559 7.1715 21.2557 7.50336C21.2556 7.83521 21.1236 8.1534 20.8886 8.38779L17.1329 12.1349C16.6441 12.6225 15.8526 12.6216 15.3651 12.1329C14.8775 11.6441 14.8784 10.8527 15.3671 10.3651L16.9731 8.76284C11.3498 9.03745 6.875 13.6836 6.875 19.375C6.875 25.243 11.632 30 17.5 30C23.1786 30 27.8175 25.5445 28.1102 19.9394C28.1462 19.2499 28.7344 18.7202 29.4237 18.7562C30.1132 18.7922 30.6429 19.3804 30.6069 20.0697C30.2451 26.9961 24.5157 32.5 17.5 32.5C10.2513 32.5 4.375 26.6237 4.375 19.375C4.375 12.296 9.97929 6.52594 16.9931 6.25961L15.3665 4.63422C14.8781 4.14626 14.8779 3.3548 15.3657 2.86646Z" fill="#565656"/>
<path d="M22.7589 15.3661C23.247 15.8542 23.247 16.6457 22.7589 17.1339L16.5089 23.3839C16.2745 23.6182 15.9565 23.75 15.625 23.75C15.2935 23.75 14.9755 23.6182 14.7411 23.3839L12.2411 20.8839C11.753 20.3957 11.753 19.6042 12.2411 19.1161C12.7293 18.628 13.5208 18.628 14.0089 19.1161L15.625 20.7322L20.9911 15.3661C21.4793 14.878 22.2708 14.878 22.7589 15.3661Z" fill="#565656"/>
</svg>
