<svg width="30" height="30" viewBox="0 0 30 30" fill="none" xmlns="http://www.w3.org/2000/svg">
<path d="M28.4211 18.7921V6.40842C28.4211 2.87474 25.5463 0 22.0126 0H6.40842C2.87474 0 0 2.87474 0 6.40842V22.0126C0 25.5463 2.87474 28.4211 6.40842 28.4211H18.7921C19.9779 29.4063 21.4995 30 23.1579 30C26.9305 30 30 26.9305 30 23.1579C30 21.4995 29.4063 19.9779 28.4211 18.7921ZM6.40842 27.3684C3.45526 27.3684 1.05263 24.9663 1.05263 22.0126V6.40842C1.05263 3.45474 3.45526 1.05263 6.40842 1.05263H22.0126C24.9658 1.05263 27.3684 3.45474 27.3684 6.40842V17.7726C27.3289 17.7416 27.2868 17.7153 27.2468 17.6853C27.1363 17.6021 27.0258 17.5195 26.91 17.4432C26.8979 17.4353 26.8847 17.4284 26.8726 17.4205C26.6021 17.2447 26.3174 17.09 26.0221 16.9532C25.9821 16.9347 25.9432 16.9137 25.9032 16.8958C25.7874 16.8447 25.6689 16.8011 25.55 16.7563C25.4747 16.7279 25.3995 16.6989 25.3232 16.6732C25.2142 16.6368 25.1042 16.6047 24.9932 16.5737C24.8989 16.5474 24.8042 16.5226 24.7089 16.5005C24.6084 16.4774 24.5084 16.4547 24.4063 16.4358C24.2853 16.4132 24.1632 16.3958 24.0405 16.38C23.9584 16.3695 23.8768 16.3563 23.7937 16.3484C23.5832 16.3279 23.3711 16.3158 23.1579 16.3158C19.9295 16.3158 17.2226 18.5663 16.5068 21.5789H14.2105C13.92 21.5789 13.6842 21.8142 13.6842 22.1053C13.6842 22.3963 13.92 22.6316 14.2105 22.6316H16.3426C16.3289 22.8058 16.3158 22.9805 16.3158 23.1579C16.3158 23.3711 16.3284 23.5832 16.3479 23.7937C16.3558 23.8774 16.3684 23.9589 16.3795 24.0416C16.3953 24.1632 16.4126 24.2847 16.4353 24.4047C16.4542 24.5074 16.4768 24.6089 16.5005 24.71C16.5226 24.8042 16.5468 24.8974 16.5726 24.9905C16.6042 25.1032 16.6363 25.2147 16.6737 25.3247C16.6984 25.3989 16.7268 25.4716 16.7542 25.5447C16.7995 25.6658 16.8442 25.7863 16.8958 25.9042C16.9111 25.9389 16.9295 25.9726 16.9453 26.0074C17.0858 26.3126 17.2458 26.6074 17.4284 26.8863C17.4332 26.8937 17.4374 26.9016 17.4421 26.9084C17.5189 27.0247 17.6021 27.1358 17.6853 27.2474C17.7153 27.2874 17.7416 27.3289 17.7721 27.3684H6.40842ZM23.1579 28.9474C21.6732 28.9474 20.3211 28.3805 19.2953 27.4579C19.1679 27.3437 19.0463 27.2247 18.9305 27.1005C18.9047 27.0732 18.88 27.0453 18.8547 27.0174C18.7447 26.8947 18.6405 26.7684 18.5416 26.6379C18.5189 26.6079 18.4958 26.5779 18.4737 26.5474C18.3763 26.4126 18.2847 26.2742 18.1995 26.1321C18.1821 26.1037 18.1642 26.0758 18.1474 26.0463C18.0611 25.8974 17.9826 25.7447 17.91 25.5889C17.8984 25.5642 17.8858 25.5405 17.8747 25.5153C17.8016 25.3526 17.7374 25.1863 17.68 25.0174C17.6732 24.9963 17.6642 24.9763 17.6574 24.9558C17.6011 24.7842 17.5542 24.6089 17.5137 24.4321C17.5089 24.4116 17.5021 24.3916 17.4979 24.3705C17.46 24.1963 17.4332 24.0195 17.4121 23.8416C17.4089 23.8168 17.4037 23.7926 17.4011 23.7674C17.3795 23.5663 17.3684 23.3632 17.3684 23.1579C17.3684 19.9658 19.9658 17.3684 23.1579 17.3684C23.3632 17.3684 23.5668 17.3795 23.7689 17.4016C23.7926 17.4042 23.8153 17.4095 23.8389 17.4126C24.0179 17.4342 24.1963 17.4616 24.3716 17.4995C24.3916 17.5037 24.4105 17.5105 24.4305 17.5147C24.6084 17.5553 24.7842 17.6021 24.9568 17.6589C24.9763 17.6653 24.9953 17.6732 25.0147 17.68C25.1853 17.7379 25.3532 17.8032 25.5174 17.8768C25.5405 17.8874 25.5632 17.8995 25.5863 17.91C25.7437 17.9832 25.8979 18.0626 26.0484 18.1495C26.0758 18.1653 26.1026 18.1826 26.1295 18.1989C26.2732 18.2858 26.4132 18.3774 26.5495 18.4763C26.5784 18.4974 26.6068 18.5189 26.6353 18.5405C26.7679 18.6405 26.8963 18.7463 27.0205 18.8579C27.0468 18.8816 27.0732 18.9047 27.0984 18.9289C27.2242 19.0463 27.3453 19.17 27.4616 19.2995C28.3821 20.3242 28.9474 21.6747 28.9474 23.1579C28.9474 26.35 26.35 28.9474 23.1579 28.9474Z" fill="#565656"/>
<path d="M26.3158 22.6316H23.6842V20C23.6842 19.7089 23.4484 19.4737 23.1579 19.4737C22.8674 19.4737 22.6316 19.7089 22.6316 20V22.6316H20C19.7095 22.6316 19.4737 22.8668 19.4737 23.1579C19.4737 23.4489 19.7095 23.6842 20 23.6842H22.6316V26.3158C22.6316 26.6068 22.8674 26.8421 23.1579 26.8421C23.4484 26.8421 23.6842 26.6068 23.6842 26.3158V23.6842H26.3158C26.6063 23.6842 26.8421 23.4489 26.8421 23.1579C26.8421 22.8668 26.6063 22.6316 26.3158 22.6316Z" fill="#565656"/>
<path d="M14.2105 7.36842H23.6842C23.9747 7.36842 24.2105 7.13316 24.2105 6.8421C24.2105 6.55105 23.9747 6.31579 23.6842 6.31579H14.2105C13.92 6.31579 13.6842 6.55105 13.6842 6.8421C13.6842 7.13316 13.92 7.36842 14.2105 7.36842Z" fill="#565656"/>
<path d="M14.2105 14.7368H23.6842C23.9747 14.7368 24.2105 14.5016 24.2105 14.2105C24.2105 13.9195 23.9747 13.6842 23.6842 13.6842H14.2105C13.92 13.6842 13.6842 13.9195 13.6842 14.2105C13.6842 14.5016 13.92 14.7368 14.2105 14.7368Z" fill="#565656"/>
<path d="M10.0889 3.86842L6.80052 7.70421L4.78947 6.19526C4.55684 6.02105 4.22737 6.0679 4.05263 6.30053C3.87789 6.53263 3.92526 6.86263 4.15789 7.03684L6.56368 8.84158C6.65842 8.91263 6.76895 8.94684 6.87947 8.94684C7.02842 8.94684 7.17579 8.88421 7.27947 8.76263L10.8884 4.55211C11.0774 4.33158 11.0521 3.99947 10.8316 3.81053C10.611 3.62211 10.2784 3.64737 10.0889 3.86842Z" fill="#565656"/>
<path d="M10.0889 11.2368L6.80052 15.0726L4.78947 13.5637C4.55684 13.3895 4.22737 13.4363 4.05263 13.669C3.87789 13.9011 3.92526 14.2311 4.15789 14.4053L6.56368 16.21C6.65842 16.2811 6.76895 16.3153 6.87947 16.3153C7.02842 16.3153 7.17579 16.2526 7.27947 16.1311L10.8884 11.9205C11.0774 11.7 11.0521 11.3679 10.8316 11.179C10.611 10.9905 10.2784 11.0158 10.0889 11.2368Z" fill="#565656"/>
<path d="M10.0889 19.1316L6.80052 22.9668L4.78947 21.4584C4.55684 21.2847 4.22737 21.3311 4.05263 21.5637C3.87789 21.7958 3.92526 22.1258 4.15789 22.3L6.56368 24.1047C6.65842 24.1758 6.76895 24.21 6.87947 24.21C7.02842 24.21 7.17579 24.1474 7.27947 24.0258L10.8884 19.8158C11.0774 19.5953 11.0521 19.2632 10.8316 19.0742C10.611 18.8853 10.2784 18.9105 10.0889 19.1316Z" fill="#565656"/>
</svg>
