<svg width="35" height="35" viewBox="0 0 35 35" fill="none" xmlns="http://www.w3.org/2000/svg">
<path d="M10.0885 24.806C12.447 27.1651 15.179 29.4202 16.2584 28.3403C17.8047 26.7945 18.7575 25.4481 22.1652 28.1869C25.573 30.9267 22.9558 32.7523 21.4581 34.2504C19.73 35.9786 13.2879 34.3411 6.92031 27.9742C0.553349 21.6065 -1.08474 15.1645 0.644569 13.4357C2.1427 11.9376 3.96834 9.32093 6.70642 12.7292C9.44565 16.1364 8.09983 17.0897 6.55362 18.6354C5.47478 19.7154 7.72927 22.4468 10.0885 24.806ZM34.9999 8.61167C34.9999 13.3098 30.1877 17.1184 24.2517 17.1184C23.6583 17.1184 23.08 17.0702 22.5128 16.9974C20.8977 18.6507 18.4306 19.454 15.628 19.6633C16.7757 18.5157 17.5969 16.8501 17.8544 15.4366C15.2187 13.8864 13.5029 11.4108 13.5029 8.61217C13.5029 3.91408 18.3152 0.105469 24.2512 0.105469C30.1872 0.105469 34.9999 3.9135 34.9999 8.61167ZM17.5336 8.61167C17.5336 9.53935 18.2855 10.2912 19.2132 10.2912C20.1409 10.2912 20.8927 9.53935 20.8927 8.61167C20.8927 7.68399 20.1408 6.93217 19.2132 6.93217C18.2856 6.93217 17.5336 7.68399 17.5336 8.61167ZM25.9312 8.61167C25.9312 7.68399 25.1794 6.93217 24.2518 6.93217C23.3242 6.93217 22.5723 7.68399 22.5723 8.61167C22.5723 9.53935 23.3242 10.2912 24.2518 10.2912C25.1794 10.2912 25.9312 9.53927 25.9312 8.61167ZM30.9697 8.61167C30.9697 7.68399 30.2179 6.93217 29.2903 6.93217C28.3627 6.93217 27.6108 7.68399 27.6108 8.61167C27.6108 9.53935 28.3627 10.2912 29.2903 10.2912C30.2179 10.2912 30.9697 9.53927 30.9697 8.61167Z" fill="#565656"/>
</svg>
