<svg width="35" height="35" viewBox="0 0 35 35" fill="none" xmlns="http://www.w3.org/2000/svg">
<g clip-path="url(#clip0_13_945)">
<path d="M8.93446 14.7966C6.50196 14.7966 4.52483 16.7737 4.52483 19.2062C4.52483 21.6387 6.50196 23.6158 8.93446 23.6158C11.367 23.6158 13.3441 21.6387 13.3441 19.2062C13.3441 16.7737 11.367 14.7966 8.93446 14.7966ZM8.93446 21.6733C7.57407 21.6733 6.47316 20.5724 6.47316 19.212C6.47316 17.8516 7.57987 16.7507 8.93446 16.7507C10.289 16.7507 11.3958 17.8516 11.3958 19.212C11.3958 20.5724 10.2948 21.6733 8.93446 21.6733Z" fill="#565656"/>
<path d="M17.8631 33.8818C17.7882 29.0284 13.811 25.0972 8.93446 25.0972C4.00607 25.0972 0.00579834 29.0976 0.00579834 34.0259C0.00579834 34.5619 0.438157 35 0.97992 35H16.8948H16.9006C17.9554 35 17.8747 33.9337 17.8631 33.8818ZM2.01744 33.0575C2.4901 29.6624 5.41255 27.0397 8.93446 27.0397C12.4564 27.0397 15.3788 29.6567 15.8515 33.0575H2.01744Z" fill="#565656"/>
<path d="M24.8435 0C19.2408 0 14.6814 4.55943 14.6814 10.1623C14.6814 12.4218 15.4365 14.618 16.8314 16.4048L15.6613 22.4629C15.5864 22.8549 15.7593 23.2527 16.0936 23.4717C16.3991 23.6618 16.941 23.6215 17.1888 23.4313L21.9616 19.9036C22.9069 20.186 23.8695 20.3243 24.8321 20.3243C30.4349 20.3243 34.9944 15.7649 34.9944 10.1621C34.9944 4.55925 30.4464 0 24.8435 0ZM24.8435 18.3762C23.927 18.3762 23.0105 18.2206 22.1229 17.9035C21.8174 17.794 21.483 17.8459 21.2179 18.0419L18.0419 20.3821L18.8258 16.3241C18.8834 16.036 18.8027 15.7304 18.6125 15.5056C17.3329 14.0184 16.6297 12.1163 16.6297 10.1565C16.6297 5.62004 20.313 1.93674 24.8494 1.93674C29.3858 1.93674 33.0691 5.62004 33.0691 10.1565C33.069 14.6929 29.38 18.3762 24.8435 18.3762Z" fill="#565656"/>
<path d="M24.9012 3.53922C24.8781 3.53922 24.8666 3.53922 24.8436 3.53922C23.8176 3.53922 22.8435 3.93698 22.1172 4.66322C21.3736 5.40106 20.9586 6.38668 20.9586 7.43579C20.9586 7.97185 21.3909 8.40991 21.9327 8.40991C22.4745 8.40991 22.9068 7.97764 22.9068 7.43579C22.9068 6.91124 23.1143 6.41557 23.4832 6.0524C23.8521 5.68924 24.3537 5.48175 24.8724 5.49325C25.8984 5.50476 26.7746 6.38098 26.7862 7.40699C26.792 8.09873 26.4576 8.72119 25.8696 9.09015C24.6131 9.86829 23.8695 11.171 23.8695 12.5718C23.8695 13.1078 24.3019 13.5459 24.8436 13.5459C25.3797 13.5459 25.8178 13.1135 25.8178 12.5718C25.8178 11.8454 26.227 11.1653 26.9015 10.7445C28.0716 10.0125 28.7575 8.76167 28.7345 7.38978C28.6998 5.29148 26.9879 3.57381 24.9012 3.53922Z" fill="#565656"/>
<path d="M24.8435 14.4623C24.3075 14.4623 23.8694 14.8946 23.8694 15.4364V15.8111C23.8694 16.3472 24.3018 16.7852 24.8435 16.7852C25.3796 16.7852 25.8177 16.3529 25.8177 15.8111V15.4364C25.8177 14.8946 25.3796 14.4623 24.8435 14.4623Z" fill="#565656"/>
</g>
<defs>
<clipPath id="clip0_13_945">
<rect width="35" height="35" fill="white"/>
</clipPath>
</defs>
</svg>
