<svg width="31" height="35" viewBox="0 0 31 35" fill="none" xmlns="http://www.w3.org/2000/svg">
<path d="M14.4119 0C14.4119 1.18202 14.4119 4.17691 14.4119 5.36199C15.1764 5.36199 15.8222 5.36199 16.5866 5.36199C16.5866 4.17698 16.5866 1.18209 16.5866 0C15.8222 0 15.1749 0 14.4119 0ZM4.23014 5.11418C5.0682 5.95224 7.18896 8.073 8.02555 8.90813C8.56622 8.36892 9.02438 7.9093 9.56658 7.37316C8.72853 6.53357 6.60777 4.41281 5.76964 3.57468C5.23043 4.11535 4.77081 4.57497 4.23014 5.11418ZM21.435 7.37155C21.9742 7.90777 22.4338 8.36732 22.9745 8.90653C23.8125 8.06694 25.9303 5.94917 26.7684 5.11258C26.2292 4.57491 25.7681 4.11828 25.2289 3.57461C24.3923 4.41274 22.273 6.5335 21.435 7.37155ZM24.9826 13.7534C24.9826 14.5209 24.9826 15.1667 24.9826 15.9327C26.1661 15.9327 29.164 15.9327 30.3476 15.9327C30.3476 15.1667 30.3476 14.5209 30.3476 13.7534C29.164 13.7534 26.1661 13.7534 24.9826 13.7534ZM0.653998 13.7534C0.653998 14.5209 0.652466 15.1667 0.652466 15.9297C1.83602 15.9313 4.83543 15.9313 6.01891 15.9343C6.01891 15.1683 6.01891 14.5224 6.01891 13.7549C4.83543 13.7534 1.83602 13.7534 0.653998 13.7534Z" fill="#565656"/>
<path d="M20.289 22.6119H10.7155C9.00627 22.6119 7.60345 24.1844 7.60345 26.1069V35H23.4025V26.1069C23.401 24.1844 22.0012 22.6119 20.289 22.6119Z" fill="#565656"/>
<path d="M15.4963 21.0694C18.4941 21.0694 20.9108 18.6512 20.9108 15.6653C20.9108 12.6764 18.4942 10.2568 15.4963 10.2568C12.5149 10.2568 10.0983 12.6734 10.0983 15.6653C10.0997 18.6497 12.5133 21.0694 15.4963 21.0694Z" fill="#565656"/>
</svg>
